<?xml version="1.0" encoding="UTF-8"?>
<svg xmlns="http://www.w3.org/2000/svg" xmlns:xlink="http://www.w3.org/1999/xlink" width="32px" height="32px" viewBox="0 0 32 32" version="1.1">
<g id="surface1">
<path style=" stroke:none;fill-rule:nonzero;fill:rgb(83.529413%,83.529413%,82.745099%);fill-opacity:1;" d="M 7.140625 1.429688 C 7.214844 1.421875 7.214844 1.421875 7.292969 1.417969 C 7.464844 1.402344 7.636719 1.390625 7.808594 1.378906 C 7.867188 1.371094 7.925781 1.367188 7.988281 1.363281 C 19.992188 0.433594 19.992188 0.433594 23.132812 3.0625 C 23.390625 3.289062 23.632812 3.53125 23.871094 3.777344 C 23.914062 3.824219 23.914062 3.824219 23.960938 3.867188 C 26.355469 6.355469 26.441406 9.675781 26.378906 12.957031 C 26.339844 14.808594 26.195312 16.65625 26 18.5 C 26.089844 18.5 26.089844 18.5 26.183594 18.496094 C 26.261719 18.496094 26.339844 18.496094 26.421875 18.492188 C 26.542969 18.492188 26.542969 18.492188 26.660156 18.488281 C 27.011719 18.507812 27.15625 18.644531 27.382812 18.894531 C 27.585938 19.210938 27.535156 19.601562 27.53125 19.964844 C 27.53125 20.050781 27.53125 20.136719 27.535156 20.222656 C 27.535156 20.453125 27.535156 20.6875 27.535156 20.917969 C 27.53125 21.160156 27.535156 21.402344 27.535156 21.648438 C 27.535156 22.054688 27.535156 22.464844 27.53125 22.871094 C 27.53125 23.34375 27.53125 23.8125 27.53125 24.285156 C 27.535156 24.691406 27.535156 25.097656 27.535156 25.5 C 27.535156 25.742188 27.535156 25.984375 27.535156 26.226562 C 27.535156 26.453125 27.535156 26.679688 27.53125 26.910156 C 27.53125 27.03125 27.53125 27.152344 27.535156 27.277344 C 27.527344 27.800781 27.472656 28.027344 27.101562 28.398438 C 26.746094 28.558594 26.386719 28.519531 26 28.5 C 26 28.539062 26.003906 28.578125 26.003906 28.621094 C 26.007812 28.800781 26.011719 28.984375 26.015625 29.164062 C 26.019531 29.226562 26.019531 29.289062 26.023438 29.351562 C 26.027344 29.726562 26.015625 29.964844 25.75 30.25 C 25.402344 30.558594 25.070312 30.535156 24.621094 30.53125 C 24.503906 30.53125 24.503906 30.53125 24.386719 30.53125 C 24.175781 30.535156 23.964844 30.535156 23.75 30.53125 C 23.523438 30.53125 23.292969 30.53125 23.066406 30.535156 C 22.617188 30.535156 22.167969 30.535156 21.71875 30.535156 C 21.355469 30.535156 20.988281 30.53125 20.625 30.535156 C 20.574219 30.535156 20.523438 30.535156 20.46875 30.535156 C 20.363281 30.535156 20.257812 30.535156 20.152344 30.535156 C 19.164062 30.535156 18.175781 30.535156 17.1875 30.53125 C 16.339844 30.53125 15.492188 30.53125 14.644531 30.53125 C 13.660156 30.535156 12.675781 30.535156 11.6875 30.535156 C 11.585938 30.535156 11.480469 30.535156 11.375 30.535156 C 11.324219 30.535156 11.269531 30.535156 11.21875 30.535156 C 10.855469 30.53125 10.488281 30.535156 10.125 30.535156 C 9.683594 30.535156 9.238281 30.535156 8.792969 30.535156 C 8.566406 30.53125 8.34375 30.53125 8.117188 30.53125 C 7.871094 30.535156 7.625 30.53125 7.378906 30.53125 C 7.273438 30.53125 7.273438 30.53125 7.164062 30.535156 C 6.777344 30.53125 6.542969 30.511719 6.25 30.25 C 5.941406 29.917969 5.96875 29.59375 5.984375 29.164062 C 5.984375 29.101562 5.988281 29.035156 5.988281 28.96875 C 5.992188 28.8125 5.996094 28.65625 6 28.5 C 5.941406 28.503906 5.882812 28.503906 5.820312 28.507812 C 5.1875 28.527344 5.1875 28.527344 4.898438 28.398438 C 4.527344 28.027344 4.472656 27.800781 4.464844 27.277344 C 4.464844 27.199219 4.46875 27.117188 4.46875 27.035156 C 4.46875 26.949219 4.46875 26.863281 4.464844 26.777344 C 4.464844 26.546875 4.464844 26.3125 4.464844 26.082031 C 4.46875 25.839844 4.464844 25.597656 4.464844 25.351562 C 4.464844 24.945312 4.464844 24.535156 4.46875 24.128906 C 4.46875 23.65625 4.46875 23.1875 4.46875 22.714844 C 4.464844 22.308594 4.464844 21.902344 4.464844 21.5 C 4.464844 21.257812 4.464844 21.015625 4.464844 20.773438 C 4.464844 20.546875 4.464844 20.320312 4.46875 20.089844 C 4.46875 19.96875 4.46875 19.847656 4.464844 19.722656 C 4.472656 19.199219 4.527344 18.972656 4.898438 18.601562 C 5.152344 18.488281 5.304688 18.488281 5.578125 18.492188 C 5.695312 18.496094 5.695312 18.496094 5.816406 18.496094 C 5.878906 18.496094 5.9375 18.5 6 18.5 C 6 18.464844 6 18.429688 6 18.394531 C 5.992188 16.351562 5.988281 14.304688 5.988281 12.261719 C 5.988281 12.015625 5.988281 11.769531 5.984375 11.523438 C 5.984375 11.476562 5.984375 11.425781 5.984375 11.375 C 5.984375 10.585938 5.984375 9.792969 5.980469 9 C 5.976562 8.191406 5.976562 7.378906 5.976562 6.566406 C 5.976562 6.066406 5.976562 5.5625 5.972656 5.0625 C 5.972656 4.679688 5.972656 4.292969 5.972656 3.910156 C 5.972656 3.753906 5.972656 3.59375 5.96875 3.4375 C 5.96875 3.222656 5.96875 3.007812 5.96875 2.792969 C 5.96875 2.730469 5.96875 2.667969 5.96875 2.601562 C 5.972656 2.246094 6 2.023438 6.25 1.75 C 6.53125 1.511719 6.78125 1.457031 7.140625 1.429688 Z M 7.140625 1.429688 "/>
<path style=" stroke:none;fill-rule:nonzero;fill:rgb(94.901961%,32.156864%,26.666668%);fill-opacity:1;" d="M 5.992188 18.46875 C 6.082031 18.46875 6.171875 18.46875 6.261719 18.46875 C 6.507812 18.464844 6.753906 18.464844 7 18.46875 C 7.269531 18.46875 7.535156 18.46875 7.800781 18.464844 C 8.320312 18.464844 8.839844 18.464844 9.363281 18.464844 C 9.785156 18.464844 10.207031 18.46875 10.632812 18.464844 C 10.691406 18.464844 10.75 18.464844 10.8125 18.464844 C 10.9375 18.464844 11.058594 18.464844 11.179688 18.464844 C 12.328125 18.464844 13.472656 18.464844 14.621094 18.46875 C 15.605469 18.46875 16.589844 18.46875 17.574219 18.46875 C 18.71875 18.464844 19.859375 18.464844 21.003906 18.464844 C 21.125 18.464844 21.246094 18.464844 21.367188 18.464844 C 21.460938 18.464844 21.460938 18.464844 21.550781 18.464844 C 21.972656 18.46875 22.394531 18.464844 22.820312 18.464844 C 23.332031 18.464844 23.847656 18.464844 24.363281 18.464844 C 24.625 18.46875 24.890625 18.46875 25.152344 18.46875 C 25.394531 18.464844 25.632812 18.464844 25.875 18.46875 C 25.960938 18.46875 26.046875 18.46875 26.136719 18.46875 C 26.941406 18.460938 26.941406 18.460938 27.25 18.75 C 27.589844 19.097656 27.535156 19.507812 27.53125 19.964844 C 27.53125 20.050781 27.53125 20.136719 27.535156 20.222656 C 27.535156 20.453125 27.535156 20.6875 27.535156 20.917969 C 27.53125 21.160156 27.535156 21.402344 27.535156 21.648438 C 27.535156 22.054688 27.535156 22.464844 27.53125 22.871094 C 27.53125 23.34375 27.53125 23.8125 27.53125 24.285156 C 27.535156 24.691406 27.535156 25.097656 27.535156 25.5 C 27.535156 25.742188 27.535156 25.984375 27.535156 26.226562 C 27.535156 26.453125 27.535156 26.679688 27.53125 26.910156 C 27.53125 27.03125 27.53125 27.152344 27.535156 27.277344 C 27.527344 27.800781 27.472656 28.027344 27.101562 28.398438 C 26.746094 28.558594 26.386719 28.519531 26 28.5 C 26.003906 28.558594 26.003906 28.558594 26.003906 28.621094 C 26.007812 28.800781 26.011719 28.984375 26.015625 29.164062 C 26.019531 29.226562 26.019531 29.289062 26.023438 29.351562 C 26.027344 29.726562 26.015625 29.964844 25.75 30.25 C 25.402344 30.558594 25.070312 30.535156 24.621094 30.53125 C 24.542969 30.53125 24.46875 30.53125 24.386719 30.53125 C 24.175781 30.535156 23.964844 30.535156 23.75 30.53125 C 23.523438 30.53125 23.292969 30.53125 23.066406 30.535156 C 22.617188 30.535156 22.167969 30.535156 21.71875 30.535156 C 21.355469 30.535156 20.988281 30.53125 20.625 30.535156 C 20.574219 30.535156 20.523438 30.535156 20.46875 30.535156 C 20.363281 30.535156 20.257812 30.535156 20.152344 30.535156 C 19.164062 30.535156 18.175781 30.535156 17.1875 30.53125 C 16.339844 30.53125 15.492188 30.53125 14.644531 30.53125 C 13.660156 30.535156 12.675781 30.535156 11.6875 30.535156 C 11.585938 30.535156 11.480469 30.535156 11.375 30.535156 C 11.324219 30.535156 11.269531 30.535156 11.21875 30.535156 C 10.855469 30.53125 10.488281 30.535156 10.125 30.535156 C 9.683594 30.535156 9.238281 30.535156 8.792969 30.535156 C 8.566406 30.53125 8.34375 30.53125 8.117188 30.53125 C 7.871094 30.535156 7.625 30.53125 7.378906 30.53125 C 7.308594 30.53125 7.234375 30.53125 7.164062 30.535156 C 6.777344 30.53125 6.542969 30.511719 6.25 30.25 C 5.941406 29.917969 5.96875 29.59375 5.984375 29.164062 C 5.984375 29.101562 5.988281 29.035156 5.988281 28.96875 C 5.992188 28.8125 5.996094 28.65625 6 28.5 C 5.941406 28.503906 5.882812 28.503906 5.820312 28.507812 C 5.1875 28.527344 5.1875 28.527344 4.898438 28.398438 C 4.527344 28.027344 4.472656 27.800781 4.464844 27.277344 C 4.464844 27.199219 4.46875 27.117188 4.46875 27.035156 C 4.46875 26.949219 4.46875 26.863281 4.464844 26.777344 C 4.464844 26.546875 4.464844 26.3125 4.464844 26.082031 C 4.46875 25.839844 4.464844 25.597656 4.464844 25.351562 C 4.464844 24.945312 4.464844 24.535156 4.46875 24.128906 C 4.46875 23.65625 4.46875 23.1875 4.46875 22.714844 C 4.464844 22.308594 4.464844 21.902344 4.464844 21.5 C 4.464844 21.257812 4.464844 21.015625 4.464844 20.773438 C 4.464844 20.546875 4.464844 20.320312 4.46875 20.089844 C 4.46875 19.96875 4.46875 19.847656 4.464844 19.722656 C 4.472656 19.035156 4.472656 19.035156 4.75 18.75 C 5.113281 18.414062 5.523438 18.464844 5.992188 18.46875 Z M 5.992188 18.46875 "/>
<path style=" stroke:none;fill-rule:nonzero;fill:rgb(83.92157%,83.92157%,83.137256%);fill-opacity:1;" d="M 6 28.5 C 12.601562 28.5 19.199219 28.5 26 28.5 C 26 29.875 26 29.875 25.75 30.25 C 25.410156 30.566406 25.058594 30.535156 24.621094 30.53125 C 24.503906 30.53125 24.503906 30.53125 24.386719 30.53125 C 24.175781 30.535156 23.964844 30.535156 23.75 30.53125 C 23.523438 30.53125 23.292969 30.53125 23.066406 30.535156 C 22.617188 30.535156 22.167969 30.535156 21.71875 30.535156 C 21.355469 30.535156 20.988281 30.53125 20.625 30.535156 C 20.574219 30.535156 20.523438 30.535156 20.46875 30.535156 C 20.363281 30.535156 20.257812 30.535156 20.152344 30.535156 C 19.164062 30.535156 18.175781 30.535156 17.1875 30.53125 C 16.339844 30.53125 15.492188 30.53125 14.644531 30.53125 C 13.660156 30.535156 12.675781 30.535156 11.6875 30.535156 C 11.585938 30.535156 11.480469 30.535156 11.375 30.535156 C 11.324219 30.535156 11.269531 30.535156 11.21875 30.535156 C 10.855469 30.53125 10.488281 30.535156 10.125 30.535156 C 9.683594 30.535156 9.238281 30.535156 8.792969 30.535156 C 8.566406 30.53125 8.34375 30.53125 8.117188 30.53125 C 7.871094 30.535156 7.625 30.53125 7.378906 30.53125 C 7.273438 30.53125 7.273438 30.53125 7.164062 30.535156 C 6.789062 30.53125 6.535156 30.519531 6.25 30.25 C 6 29.875 6 29.875 6 28.5 Z M 6 28.5 "/>
<path style=" stroke:none;fill-rule:nonzero;fill:rgb(83.92157%,82.745099%,81.960785%);fill-opacity:1;" d="M 11.386719 20.78125 C 11.4375 20.777344 11.484375 20.777344 11.535156 20.777344 C 11.640625 20.777344 11.746094 20.777344 11.847656 20.78125 C 12.007812 20.78125 12.164062 20.78125 12.320312 20.777344 C 13.542969 20.777344 13.542969 20.777344 14 21.167969 C 14.320312 21.507812 14.40625 21.871094 14.394531 22.328125 C 14.339844 22.796875 14.183594 23.203125 13.8125 23.5 C 13.847656 23.519531 13.878906 23.542969 13.914062 23.5625 C 14.175781 23.742188 14.382812 23.894531 14.476562 24.214844 C 14.570312 24.832031 14.578125 25.507812 14.25 26.0625 C 13.945312 26.441406 13.59375 26.601562 13.125 26.6875 C 12.804688 26.714844 12.480469 26.714844 12.160156 26.710938 C 12.011719 26.710938 11.863281 26.710938 11.710938 26.714844 C 11.617188 26.714844 11.519531 26.710938 11.425781 26.710938 C 11.378906 26.710938 11.335938 26.714844 11.289062 26.714844 C 11.015625 26.710938 10.84375 26.667969 10.625 26.5 C 10.527344 26.304688 10.550781 26.09375 10.550781 25.878906 C 10.550781 25.824219 10.550781 25.773438 10.550781 25.722656 C 10.546875 25.550781 10.546875 25.378906 10.546875 25.210938 C 10.546875 25.152344 10.542969 25.09375 10.542969 25.03125 C 10.542969 24.726562 10.542969 24.417969 10.539062 24.109375 C 10.539062 23.792969 10.535156 23.472656 10.535156 23.15625 C 10.53125 22.910156 10.53125 22.664062 10.53125 22.421875 C 10.53125 22.304688 10.527344 22.1875 10.527344 22.070312 C 10.527344 21.90625 10.527344 21.742188 10.527344 21.578125 C 10.523438 21.527344 10.523438 21.480469 10.523438 21.429688 C 10.527344 21.191406 10.542969 21.085938 10.707031 20.90625 C 10.933594 20.78125 11.132812 20.777344 11.386719 20.78125 Z M 11.386719 20.78125 "/>
<path style=" stroke:none;fill-rule:nonzero;fill:rgb(83.92157%,83.137256%,82.352942%);fill-opacity:1;" d="M 17.996094 20.777344 C 18.089844 20.773438 18.089844 20.773438 18.183594 20.773438 C 18.445312 20.828125 18.585938 20.925781 18.75 21.125 C 18.921875 21.398438 19.066406 21.679688 19.214844 21.964844 C 19.253906 22.039062 19.292969 22.117188 19.335938 22.191406 C 19.605469 22.707031 19.867188 23.226562 20.125 23.75 C 20.125 23.667969 20.125 23.589844 20.128906 23.507812 C 20.132812 23.207031 20.136719 22.910156 20.140625 22.613281 C 20.144531 22.484375 20.144531 22.355469 20.148438 22.226562 C 20.148438 22.039062 20.152344 21.855469 20.15625 21.667969 C 20.15625 21.609375 20.15625 21.554688 20.15625 21.492188 C 20.15625 21.441406 20.160156 21.386719 20.160156 21.332031 C 20.160156 21.28125 20.160156 21.234375 20.164062 21.1875 C 20.195312 21.03125 20.25 20.976562 20.375 20.875 C 20.519531 20.804688 20.605469 20.800781 20.765625 20.796875 C 20.8125 20.796875 20.859375 20.792969 20.90625 20.792969 C 21.109375 20.820312 21.257812 20.90625 21.4375 21 C 21.445312 21.703125 21.449219 22.410156 21.453125 23.113281 C 21.457031 23.441406 21.457031 23.769531 21.460938 24.09375 C 21.464844 24.410156 21.464844 24.726562 21.46875 25.042969 C 21.46875 25.164062 21.46875 25.285156 21.46875 25.402344 C 21.472656 25.574219 21.472656 25.742188 21.472656 25.910156 C 21.472656 25.960938 21.476562 26.011719 21.476562 26.0625 C 21.472656 26.304688 21.460938 26.414062 21.289062 26.59375 C 21.027344 26.746094 20.792969 26.726562 20.5 26.6875 C 19.945312 26.492188 19.667969 25.625 19.40625 25.128906 C 19.34375 25.011719 19.28125 24.898438 19.222656 24.78125 C 19.164062 24.675781 19.109375 24.570312 19.054688 24.464844 C 18.914062 24.207031 18.769531 23.945312 18.625 23.6875 C 18.605469 24.617188 18.582031 25.542969 18.5625 26.5 C 18.171875 26.695312 18.089844 26.726562 17.6875 26.6875 C 17.402344 26.554688 17.402344 26.554688 17.3125 26.375 C 17.304688 26.207031 17.300781 26.042969 17.300781 25.878906 C 17.300781 25.824219 17.300781 25.773438 17.300781 25.722656 C 17.296875 25.550781 17.296875 25.378906 17.296875 25.210938 C 17.296875 25.152344 17.292969 25.09375 17.292969 25.03125 C 17.292969 24.726562 17.292969 24.417969 17.289062 24.109375 C 17.289062 23.792969 17.285156 23.472656 17.285156 23.15625 C 17.28125 22.910156 17.28125 22.664062 17.28125 22.421875 C 17.28125 22.304688 17.277344 22.1875 17.277344 22.070312 C 17.277344 21.90625 17.277344 21.742188 17.277344 21.578125 C 17.273438 21.527344 17.273438 21.480469 17.273438 21.429688 C 17.277344 21.1875 17.292969 21.085938 17.460938 20.90625 C 17.652344 20.796875 17.773438 20.777344 17.996094 20.777344 Z M 17.996094 20.777344 "/>
<path style=" stroke:none;fill-rule:nonzero;fill:rgb(26.666668%,32.941177%,42.352942%);fill-opacity:1;" d="M 20 1.5 C 20.492188 1.921875 20.492188 1.921875 20.703125 2.128906 C 20.75 2.179688 20.796875 2.226562 20.84375 2.273438 C 20.921875 2.351562 20.921875 2.351562 20.996094 2.425781 C 21.050781 2.480469 21.105469 2.535156 21.164062 2.589844 C 21.308594 2.738281 21.457031 2.886719 21.605469 3.035156 C 21.757812 3.1875 21.914062 3.34375 22.070312 3.5 C 22.328125 3.757812 22.589844 4.015625 22.847656 4.277344 C 23.148438 4.578125 23.445312 4.875 23.746094 5.175781 C 24.003906 5.433594 24.261719 5.691406 24.519531 5.949219 C 24.675781 6.105469 24.828125 6.257812 24.984375 6.414062 C 25.15625 6.582031 25.324219 6.753906 25.496094 6.925781 C 25.546875 6.976562 25.597656 7.027344 25.652344 7.082031 C 25.699219 7.128906 25.746094 7.171875 25.792969 7.222656 C 25.851562 7.28125 25.851562 7.28125 25.914062 7.34375 C 26 7.4375 26 7.4375 26 7.5 C 24.019531 7.5 22.039062 7.5 20 7.5 C 20 5.519531 20 3.539062 20 1.5 Z M 20 1.5 "/>
<path style=" stroke:none;fill-rule:nonzero;fill:rgb(26.666668%,32.941177%,42.352942%);fill-opacity:1;" d="M 9.390625 14.960938 C 9.449219 14.960938 9.507812 14.960938 9.570312 14.960938 C 9.765625 14.960938 9.960938 14.960938 10.15625 14.960938 C 10.296875 14.960938 10.4375 14.960938 10.578125 14.960938 C 10.960938 14.960938 11.34375 14.960938 11.722656 14.960938 C 12.125 14.964844 12.523438 14.964844 12.921875 14.960938 C 13.59375 14.960938 14.261719 14.964844 14.933594 14.964844 C 15.625 14.96875 16.3125 14.96875 17.003906 14.96875 C 17.835938 14.96875 18.667969 14.96875 19.5 14.96875 C 19.816406 14.96875 20.132812 14.972656 20.449219 14.96875 C 20.824219 14.96875 21.199219 14.972656 21.574219 14.972656 C 21.710938 14.972656 21.847656 14.972656 21.984375 14.972656 C 22.171875 14.972656 22.359375 14.972656 22.546875 14.976562 C 22.601562 14.976562 22.65625 14.976562 22.710938 14.972656 C 23.003906 14.976562 23.199219 14.996094 23.4375 15.1875 C 23.523438 15.363281 23.515625 15.492188 23.5 15.6875 C 23.390625 15.882812 23.34375 15.925781 23.125 16 C 22.9375 16.007812 22.75 16.007812 22.5625 16.007812 C 22.472656 16.007812 22.472656 16.007812 22.382812 16.007812 C 22.1875 16.011719 21.992188 16.011719 21.792969 16.011719 C 21.652344 16.011719 21.511719 16.011719 21.371094 16.011719 C 20.988281 16.011719 20.605469 16.011719 20.222656 16.011719 C 19.984375 16.011719 19.746094 16.011719 19.507812 16.011719 C 18.847656 16.015625 18.183594 16.015625 17.523438 16.015625 C 17.480469 16.015625 17.441406 16.015625 17.394531 16.015625 C 17.332031 16.015625 17.332031 16.015625 17.265625 16.015625 C 17.179688 16.015625 17.09375 16.015625 17.007812 16.015625 C 16.945312 16.015625 16.945312 16.015625 16.878906 16.015625 C 16.1875 16.015625 15.5 16.015625 14.808594 16.019531 C 14.097656 16.019531 13.386719 16.019531 12.679688 16.019531 C 12.28125 16.019531 11.882812 16.019531 11.484375 16.023438 C 11.109375 16.023438 10.734375 16.023438 10.359375 16.023438 C 10.222656 16.023438 10.085938 16.023438 9.945312 16.023438 C 9.757812 16.023438 9.570312 16.023438 9.382812 16.023438 C 9.328125 16.023438 9.273438 16.023438 9.21875 16.023438 C 8.851562 16.019531 8.851562 16.019531 8.65625 15.910156 C 8.546875 15.796875 8.519531 15.726562 8.496094 15.570312 C 8.488281 15.527344 8.480469 15.488281 8.472656 15.445312 C 8.566406 14.960938 8.996094 14.957031 9.390625 14.960938 Z M 9.390625 14.960938 "/>
<path style=" stroke:none;fill-rule:nonzero;fill:rgb(26.666668%,32.941177%,42.352942%);fill-opacity:1;" d="M 9.390625 11.960938 C 9.449219 11.960938 9.507812 11.960938 9.570312 11.960938 C 9.765625 11.960938 9.960938 11.960938 10.15625 11.960938 C 10.296875 11.960938 10.4375 11.960938 10.578125 11.960938 C 10.960938 11.960938 11.34375 11.960938 11.722656 11.960938 C 12.125 11.964844 12.523438 11.964844 12.921875 11.960938 C 13.59375 11.960938 14.261719 11.964844 14.933594 11.964844 C 15.625 11.96875 16.3125 11.96875 17.003906 11.96875 C 17.835938 11.96875 18.667969 11.96875 19.5 11.96875 C 19.816406 11.96875 20.132812 11.972656 20.449219 11.96875 C 20.824219 11.96875 21.199219 11.972656 21.574219 11.972656 C 21.710938 11.972656 21.847656 11.972656 21.984375 11.972656 C 22.171875 11.972656 22.359375 11.972656 22.546875 11.976562 C 22.601562 11.976562 22.65625 11.976562 22.710938 11.972656 C 23.003906 11.976562 23.199219 11.996094 23.4375 12.1875 C 23.523438 12.363281 23.515625 12.492188 23.5 12.6875 C 23.390625 12.882812 23.34375 12.925781 23.125 13 C 22.9375 13.007812 22.75 13.007812 22.5625 13.007812 C 22.472656 13.007812 22.472656 13.007812 22.382812 13.007812 C 22.1875 13.011719 21.992188 13.011719 21.792969 13.011719 C 21.652344 13.011719 21.511719 13.011719 21.371094 13.011719 C 20.988281 13.011719 20.605469 13.011719 20.222656 13.011719 C 19.984375 13.011719 19.746094 13.011719 19.507812 13.011719 C 18.847656 13.015625 18.183594 13.015625 17.523438 13.015625 C 17.480469 13.015625 17.441406 13.015625 17.394531 13.015625 C 17.332031 13.015625 17.332031 13.015625 17.265625 13.015625 C 17.179688 13.015625 17.09375 13.015625 17.007812 13.015625 C 16.945312 13.015625 16.945312 13.015625 16.878906 13.015625 C 16.1875 13.015625 15.5 13.015625 14.808594 13.019531 C 14.097656 13.019531 13.386719 13.019531 12.679688 13.019531 C 12.28125 13.019531 11.882812 13.019531 11.484375 13.023438 C 11.109375 13.023438 10.734375 13.023438 10.359375 13.023438 C 10.222656 13.023438 10.085938 13.023438 9.945312 13.023438 C 9.757812 13.023438 9.570312 13.023438 9.382812 13.023438 C 9.328125 13.023438 9.273438 13.023438 9.21875 13.023438 C 8.851562 13.019531 8.851562 13.019531 8.65625 12.910156 C 8.546875 12.796875 8.519531 12.726562 8.496094 12.570312 C 8.488281 12.527344 8.480469 12.488281 8.472656 12.445312 C 8.566406 11.960938 8.996094 11.957031 9.390625 11.960938 Z M 9.390625 11.960938 "/>
<path style=" stroke:none;fill-rule:nonzero;fill:rgb(83.92157%,83.529413%,82.745099%);fill-opacity:1;" d="M 15.816406 20.792969 C 15.867188 20.792969 15.921875 20.792969 15.976562 20.792969 C 16.136719 20.8125 16.238281 20.851562 16.375 20.9375 C 16.472656 21.136719 16.445312 21.347656 16.449219 21.566406 C 16.449219 21.621094 16.449219 21.671875 16.449219 21.726562 C 16.449219 21.898438 16.449219 22.070312 16.449219 22.242188 C 16.449219 22.363281 16.449219 22.484375 16.453125 22.605469 C 16.453125 22.855469 16.453125 23.105469 16.453125 23.359375 C 16.453125 23.679688 16.453125 24.003906 16.457031 24.324219 C 16.457031 24.574219 16.457031 24.820312 16.457031 25.070312 C 16.457031 25.1875 16.457031 25.308594 16.460938 25.425781 C 16.460938 25.59375 16.460938 25.757812 16.460938 25.925781 C 16.460938 25.972656 16.460938 26.023438 16.460938 26.074219 C 16.457031 26.40625 16.457031 26.40625 16.347656 26.5625 C 16.105469 26.71875 15.78125 26.746094 15.5 26.6875 C 15.339844 26.59375 15.339844 26.59375 15.1875 26.4375 C 15.15625 26.25 15.144531 26.097656 15.148438 25.914062 C 15.148438 25.859375 15.144531 25.808594 15.144531 25.753906 C 15.144531 25.578125 15.144531 25.40625 15.144531 25.230469 C 15.144531 25.109375 15.144531 24.988281 15.144531 24.867188 C 15.144531 24.613281 15.144531 24.359375 15.148438 24.105469 C 15.148438 23.78125 15.148438 23.453125 15.144531 23.128906 C 15.144531 22.878906 15.144531 22.628906 15.144531 22.378906 C 15.144531 22.257812 15.144531 22.140625 15.144531 22.019531 C 15.144531 21.851562 15.144531 21.683594 15.148438 21.515625 C 15.144531 21.464844 15.144531 21.417969 15.144531 21.367188 C 15.148438 21.226562 15.148438 21.226562 15.1875 21 C 15.394531 20.828125 15.550781 20.789062 15.816406 20.792969 Z M 15.816406 20.792969 "/>
<path style=" stroke:none;fill-rule:nonzero;fill:rgb(94.901961%,33.333334%,28.235295%);fill-opacity:1;" d="M 11.8125 23.9375 C 11.96875 23.933594 12.128906 23.925781 12.289062 23.921875 C 12.363281 23.917969 12.363281 23.917969 12.4375 23.914062 C 12.757812 23.910156 12.933594 23.976562 13.1875 24.1875 C 13.277344 24.371094 13.265625 24.535156 13.269531 24.738281 C 13.273438 24.816406 13.273438 24.890625 13.277344 24.96875 C 13.246094 25.222656 13.179688 25.320312 13 25.5 C 12.792969 25.601562 12.5625 25.570312 12.335938 25.566406 C 12.164062 25.566406 11.992188 25.5625 11.8125 25.5625 C 11.8125 25.027344 11.8125 24.488281 11.8125 23.9375 Z M 11.8125 23.9375 "/>
<path style=" stroke:none;fill-rule:nonzero;fill:rgb(94.901961%,33.333334%,27.843139%);fill-opacity:1;" d="M 11.8125 21.875 C 11.972656 21.867188 12.128906 21.863281 12.292969 21.855469 C 12.34375 21.851562 12.390625 21.851562 12.441406 21.847656 C 12.699219 21.84375 12.789062 21.855469 13 22.019531 C 13.164062 22.238281 13.164062 22.355469 13.125 22.625 C 12.988281 22.914062 12.988281 22.914062 12.8125 23 C 12.640625 23.003906 12.472656 23.003906 12.304688 23.003906 C 12.140625 23.003906 11.980469 23 11.8125 23 C 11.8125 22.628906 11.8125 22.257812 11.8125 21.875 Z M 11.8125 21.875 "/>
</g>
</svg>
